HIERARCHY
ROOT Hips
{
  OFFSET 40.9192 92.6879 18.85
  CHANNELS 6 Xposition Yposition Zposition Zrotation Xrotation Yrotation
  JOINT LeftUpLeg
  {
    OFFSET 8.64259 1.95398 -2.38835
    CHANNELS 3 Zrotation Xrotation Yrotation
    JOINT LeftLeg
    {
      OFFSET 43.7702 0 0
      CHANNELS 3 Zrotation Xrotation Yrotation
      JOINT LeftFoot
      {
        OFFSET 40.6238 0 0
        CHANNELS 3 Zrotation Xrotation Yrotation
        JOINT LeftToeBase
        {
          OFFSET 12.7242 0 0
          CHANNELS 3 Zrotation Xrotation Yrotation
          End Site
          {
            OFFSET 0 0 0
          }
        }
      }
    }
  }
  JOINT RightUpLeg
  {
    OFFSET -8.2249 1.95398 -2.59336
    CHANNELS 3 Zrotation Xrotation Yrotation
    JOINT RightLeg
    {
      OFFSET 43.5653 0 0
      CHANNELS 3 Zrotation Xrotation Yrotation
      JOINT RightFoot
      {
        OFFSET 40.6238 0 0
        CHANNELS 3 Zrotation Xrotation Yrotation
        JOINT RightToeBase
        {
          OFFSET 12.7242 0 0
          CHANNELS 3 Zrotation Xrotation Yrotation
          End Site
          {
            OFFSET 0 0 0
          }
        }
      }
    }
  }
  JOINT Spine
  {
    OFFSET 0.165834 0.87714 6.61349
    CHANNELS 3 Zrotation Xrotation Yrotation
    JOINT Spine1
    {
      OFFSET 7.38963 1.71661e-005 0
      CHANNELS 3 Zrotation Xrotation Yrotation
      JOINT Spine2
      {
        OFFSET 11.9445 1.14441e-005 0
        CHANNELS 3 Zrotation Xrotation Yrotation
        JOINT Spine3
        {
          OFFSET 14.7254 4.19617e-005 0
          CHANNELS 3 Zrotation Xrotation Yrotation
          JOINT Spine4
          {
            OFFSET 10.9679 0 0
            CHANNELS 3 Zrotation Xrotation Yrotation
            JOINT RightShoulder
            {
              OFFSET 2.46616 -1.6653 3.69651
              CHANNELS 3 Zrotation Xrotation Yrotation
              JOINT RightArm
              {
                OFFSET 13.0012 0 0
                CHANNELS 3 Zrotation Xrotation Yrotation
                JOINT RightForeArm
                {
                  OFFSET 28.7848 1.52588e-005 0
                  CHANNELS 3 Zrotation Xrotation Yrotation
                  JOINT RightHand
                  {
                    OFFSET 26.5688 1.52588e-005 0
                    CHANNELS 3 Zrotation Xrotation Yrotation
                    End Site
                    {
                      OFFSET 0 0 0
                    }
                  }
                }
              }
            }
            JOINT LeftShoulder
            {
              OFFSET 2.38034 -1.29275 -3.7523
              CHANNELS 3 Zrotation Xrotation Yrotation
              JOINT LeftArm
              {
                OFFSET 16.3182 6.10351e-005 0
                CHANNELS 3 Zrotation Xrotation Yrotation
                JOINT LeftForeArm
                {
                  OFFSET 27.0901 0 0
                  CHANNELS 3 Zrotation Xrotation Yrotation
                  JOINT LeftHand
                  {
                    OFFSET 24.5451 1.52588e-005 0
                    CHANNELS 3 Zrotation Xrotation Yrotation
                    End Site
                    {
                      OFFSET 0 0 0
                    }
                  }
                }
              }
            }
            JOINT Neck
            {
              OFFSET 5.0226 -0.0266342 0
              CHANNELS 3 Zrotation Xrotation Yrotation
              JOINT Head
              {
                OFFSET 6.69363 2.86102e-005 0
                CHANNELS 3 Zrotation Xrotation Yrotation
                End Site
                {
                  OFFSET 0 0 0
                }
              }
            }
          }
        }
      }
    }
  }
}
MOTION
Frames:	15
Frame Time:	0.0416667
-223.595 58.5641 -195.871 86.6461 -14.8358 93.1483 178.813 23.2756 105.68 -106.035 25.7435 2.08723 53.0766 2.45575 9.51739 66.8948 46.1987 32.2276 125.655 58.3229 121.784 -111.486 2.20321 -1.8027 102.964 -18.9674 -5.36663 43.8944 0.0798641 -9.96513 1.2111 11.9919 -91.5064 2.90301 1.82588 -2.92416 -8.77013 1.69545 -3.00161 -31.2985 2.62006 -2.24061 -11.2858 2.62009 -2.2406 101.963 -22.7348 -82.5721 31.0617 -8.64599 -23.685 -16.1639 -31.7873 -53.129 32.8541 -6.05532 -20.1801 -79.6242 -16.3506 92.4366 -56.615 -2.60592 2.6307 4.56081 -1.28876 -81.1198 34.8312 -2.82483 -12.4821 15.6877 -18.1108 12.0741 19.8023 -23.2564 -13.775 
-223.295 59.6783 -196.185 84.9503 -12.0731 95.7155 175.324 23.7234 107.727 -104.367 24.573 2.78284 54.6666 3.91113 10.1879 68.3061 52.9538 38.2681 119.954 56.0375 124.228 -109.658 -0.00688991 -1.65197 99.7368 -17.6784 -5.54547 40.5074 0.635524 0.773378 0.85546 11.0797 -92.2264 4.70623 0.798694 -4.38204 -6.97197 0.60527 -4.41285 -29.4587 2.07776 -3.94062 -9.44607 2.07772 -3.94063 94.0504 -28.5656 -99.0002 12.6765 -13.4877 -9.14496 -1.9135 -31.4326 -48.9678 9.18578 -1.55514 -16.8921 -88.2314 -33.0893 77.3926 -36.4523 -15.7785 15.2981 1.33576 0.66088 -104.882 36.7439 0.81857 -1.79452 11.2051 -17.341 14.3806 19.9526 -22.297 -11.9133 
-222.352 60.942 -195.993 85.8842 -14.0505 96.9133 176.686 19.7186 107.124 -102.22 24.2131 3.18531 75.9352 16.994 -2.84486 39.2228 24.6354 80.2182 122.091 54.6565 122.875 -108.824 -1.52582 -1.73901 95.6167 -15.947 -5.75363 40.8011 0.623334 0.58327 0.885709 10.6911 -92.2799 5.48573 0.821461 -4.4984 -6.19287 0.622875 -4.53012 -28.6772 2.13436 -4.04488 -8.6645 2.13437 -4.04489 89.5361 -34.1953 -106.151 5.53288 -18.2541 -1.34512 -4.31748 -29.1581 -53.4126 -1.96432 -0.391399 -3.64451 -92.3428 -39.722 72.3228 -25.4088 -22.193 18.6043 -0.476505 4.33244 -116.683 34.9026 0.612625 -2.28645 7.93687 -16.8012 12.4223 20.1768 -20.5464 -9.08175 
-219.932 61.4422 -194.079 84.6759 -19.632 92.8027 -176.823 16.29 101.954 -96.7229 23.2719 2.90459 57.8053 7.48852 13.9582 62.3255 42.297 35.3136 133.234 57.9256 118.883 -109.731 -2.32434 -2.18641 96.7397 -16.2758 -4.77541 41.1461 0.461136 -3.64495 1.06813 10.1422 -91.7367 6.5984 1.39455 -3.47253 -5.07657 1.24045 -3.53045 -27.5901 2.37332 -2.89361 -7.57747 2.37332 -2.89362 90.379 -34.1254 -104.56 8.72784 -18.5619 0.421131 -9.72584 -30.7012 -56.3114 -5.60853 -0.709578 2.38035 -91.8349 -39.6607 73.1701 -24.7179 -23.0625 13.5642 2.88775 2.78346 -121.629 34.3421 0.612035 -2.25365 4.73877 -15.9381 10.4816 19.9836 -18.6682 -6.89358 
-216.814 62.1893 -191.018 79.5471 -24.3422 86.1455 -171.861 13.7697 97.1132 -88.6897 21.0581 1.88968 58.549 7.85703 13.4994 60.6099 39.9671 34.947 138.562 64.1916 118.754 -112.324 -2.29205 -2.46853 90.1222 -14.0919 -4.82572 46.6179 0.639065 -2.75878 1.14699 9.29853 -91.1591 8.2901 1.77917 -2.3975 -3.38198 1.67195 -2.47344 -25.9163 2.41732 -1.7521 -5.90362 2.41732 -1.75211 91.487 -34.6414 -102.325 11.4827 -17.7866 1.75256 -10.8584 -28.4379 -56.8407 -6.74123 -0.726424 1.95621 -92.1 -38.9561 72.507 -24.4811 -25.448 10.4092 4.09018 2.36172 -124.678 33.8084 0.0817385 -3.8425 2.06537 -14.7355 8.51298 20.342 -16.3913 -3.67405 
-213.159 63.5247 -188.23 78.6671 -24.3023 84.5826 -171.638 7.71878 96.4721 -79.9971 21.6298 2.05247 59.4108 7.59136 12.8012 59.9253 38.9775 34.7856 141.835 63.3359 114.335 -112.873 -2.8496 -2.38478 84.1586 -11.9037 -4.77838 52.046 1.2026 0.263773 0.684971 8.88238 -91.0982 9.1129 0.875095 -2.23839 -2.55971 0.775777 -2.27472 -25.0858 1.50727 -1.87209 -5.07314 1.50727 -1.87209 91.9802 -35.2041 -101.246 14.4406 -17.4101 3.5981 -10.7503 -25.8918 -57.1247 -9.95331 -0.698627 0.505391 -91.1798 -37.2182 73.5316 -24.5005 -29.757 10.2316 4.72846 2.82891 -128.322 30.5896 0.386256 -2.76509 1.01959 -13.2121 8.12598 19.3053 -14.4795 -2.29829 
-209.159 64.9171 -184.897 75.8887 -24.469 81.8359 -171.729 2.52547 95.9343 -69.021 23.8991 2.10896 57.0582 3.77675 10.2921 64.1455 39.7249 26.934 147.907 62.1213 108.582 -111.932 -6.12954 -2.17743 81.4058 -10.6624 -4.58677 56.3899 1.10087 -1.33339 0.328416 8.44782 -90.9665 9.97604 0.214979 -1.93441 -1.69638 0.129654 -1.942 -24.2213 0.786336 -1.78045 -4.20868 0.786304 -1.78047 93.2153 -35.6324 -98.8291 17.0842 -18.1766 4.23945 -8.01268 -22.1134 -58.8831 -14.1035 -0.880925 1.47143 -89.8783 -35.4531 75.2736 -25.0995 -28.8275 9.32617 6.12389 1.23712 -130.373 29.2366 0.467381 -2.39428 1.40479 -11.9589 6.42224 19.3432 -12.593 -0.0652848 
-204.783 66.5952 -181.186 73.2465 -24.3352 79.485 -172.063 -2.46265 96.0504 -56.5425 26.0662 2.45803 53.2567 -1.30672 2.35125 58.6378 36.5878 33.5009 153.542 58.9979 103.114 -109.458 -9.58893 -1.79016 79.5666 -9.61531 -4.3423 60.299 0.682033 -4.27844 0.0478945 8.09892 -90.9123 10.6697 -0.324605 -1.78332 -1.00242 -0.402776 -1.76732 -23.5278 0.226262 -1.79844 -3.51516 0.226274 -1.79844 94.1171 -37.0353 -96.8562 20.3066 -18.1945 7.07656 -8.90451 -18.5283 -62.6008 -17.1515 -0.731486 -0.311588 -89.3135 -36.2188 76.4916 -24.1874 -22.4551 9.57635 7.35295 -1.98208 -130.479 26.0791 0.352749 -2.62859 3.53672 -10.7406 6.10177 17.3797 -11.1948 1.18813 
-200.701 68.159 -177.13 69.8742 -25.0212 76.0579 -172.115 -5.2593 95.2454 -45.5624 27.7609 1.93471 44.5459 -8.0911 -6.86989 49.0363 27.2743 42.8024 160.686 56.1019 98.1637 -105.811 -9.43094 -1.28654 81.3949 -10.3515 -4.46313 59.7764 1.37723 -0.893967 0.00189043 7.6381 -90.7062 11.5936 -0.326921 -1.37334 -0.0779762 -0.387017 -1.35763 -22.6073 0.100931 -1.40809 -2.59467 0.100909 -1.4081 95.4131 -39.448 -94.0597 23.5717 -17.9616 10.4292 -6.19956 -15.6178 -63.9991 -18.6966 -0.439325 -2.33482 -88.9389 -36.8634 77.3238 -26.274 -10.2177 10.7603 9.34336 -6.18937 -125.453 23.2349 0.311782 -2.59977 3.6254 -10.2644 4.53635 16.2004 -10.1296 3.31406 
-197.109 69.677 -173.367 67.4722 -24.9859 73.5295 -172.174 -4.43543 95.1404 -41.1433 28.5291 1.22254 32.8571 -14.6162 -12.499 44.9218 17.9478 31.7668 165.277 52.0507 95.2877 -101.2 -8.92429 -0.830179 82.5788 -10.6409 -4.43268 60.5681 1.46331 -0.655269 -0.129907 7.3909 -90.5548 12.0885 -0.520471 -1.04946 0.417243 -0.566155 -1.02555 -22.1147 -0.181027 -1.15736 -2.10204 -0.181047 -1.15736 95.2921 -41.7822 -93.8884 26.6073 -16.8927 12.8059 -2.89014 -11.3179 -65.3816 -23.5852 -0.534547 -2.33932 -88.6715 -38.5231 78.2116 -29.7307 0.926166 13.9599 11.8804 -8.28061 -115.627 20.7634 0.446769 -1.74867 3.8647 -9.43443 4.47058 16.2096 -9.26379 3.55876 
-193.627 72.0787 -169.655 66.293 -24.537 72.2974 -171.722 1.94128 95.5156 -49.8383 23.782 0.592655 36.0844 -12.9458 -9.69807 38.4231 8.11052 15.3904 167.58 46.0625 93.9018 -94.0643 -8.83317 -0.288049 82.8689 -10.4182 -4.28443 60.5419 1.11918 -2.25073 -0.124146 7.48763 -90.4773 11.8958 -0.471566 -0.901286 0.224642 -0.510791 -0.879663 -22.3082 -0.178915 -1.00133 -2.29557 -0.178911 -1.00134 95.4411 -44.7891 -93.1616 26.589 -15.5781 11.7546 -2.7586 -9.44493 -68.4341 -22.6577 -0.466725 -2.68275 -89.2221 -41.0933 77.9174 -32.964 7.509 15.0325 14.6964 -9.05915 -100.233 17.7542 0.410317 -1.54939 6.1342 -9.63279 4.29364 16.2406 -9.48972 3.55714 
-190.611 74.6697 -166.407 65.7835 -24.8356 71.2825 -171.132 10.6251 94.8339 -60.5119 19.3945 -0.086884 40.3797 -10.3583 -5.65368 40.9847 10.4894 11.9278 169.602 39.8586 92.6601 -86.0067 -7.85061 -0.0266133 82.9502 -10.1263 -4.12178 59.341 1.5003 -0.192993 0.102794 7.75723 -90.4187 11.3588 0.00934213 -0.834354 -0.312464 -0.0273736 -0.833965 -22.8456 0.259664 -0.792971 -2.83294 0.259667 -0.792972 94.9173 -45.74 -93.8822 27.0783 -14.3996 9.66532 -2.51395 -6.68086 -74.2061 -26.5669 -0.165579 -4.27849 -90.2072 -43.4791 76.8967 -34.3393 12.5011 14.0426 13.1567 0.107619 -84.4627 17.0352 0.601752 -0.33013 8.80359 -10.1015 6.0489 15.4816 -10.647 1.98929 
-187.664 77.1051 -163.372 65.3314 -25.6384 70.6865 -170.155 20.6162 93.8211 -70.6913 17.2502 -0.557895 44.5604 -7.69269 -1.00349 41.7503 11.3568 13.2965 170.942 33.0009 91.8762 -76.7002 -9.34181 0.216463 81.0592 -9.2881 -3.93483 60.8015 1.14641 -2.15489 0.482254 7.93009 -90.3686 11.0161 0.789246 -0.809038 -0.654874 0.752899 -0.843 -23.1909 0.995896 -0.53443 -3.17828 0.995918 -0.53442 94.9666 -45.8186 -93.7896 26.4774 -13.8542 6.13592 -5.22388 -5.87735 -84.0945 -20.7866 -0.0218183 -5.02882 -91.0199 -43.8365 75.686 -36.487 17.2945 14.2765 7.0659 1.04379 -66.4612 19.9851 0.593541 -0.909387 9.26424 -11.1197 7.26697 15.0467 -12.0973 0.841465 
-184.607 79.455 -160.12 64.5079 -27.2518 69.6754 -167.907 30.7158 91.9835 -78.2535 12.4835 -0.796013 51.2304 -2.96388 -0.266113 40.5526 10.0497 11.6089 173.188 25.08 91.2353 -65.1866 -11.127 -0.438991 80.0069 -9.14534 -3.97211 60.4001 1.0416 -2.59043 0.830696 8.07955 -90.2482 10.7197 1.53986 -0.635252 -0.950488 1.51041 -0.702427 -23.4929 1.65958 -0.14297 -3.48027 1.65957 -0.142966 95.2899 -43.8613 -93.5584 24.6297 -13.2624 -0.533729 -10.5481 -3.51741 -93.2067 -26.0459 0.27835 -6.18274 -91.668 -43.6996 74.6142 -39.2342 19.1391 19.7692 5.88621 3.70602 -58.4857 21.4307 1.04513 1.01602 9.46034 -11.874 7.62063 15.288 -13.0307 0.121609 
-181.571 81.4053 -156.51 62.5821 -27.9116 68.3011 -165.79 41.6536 89.1188 -82.3556 12.9524 -0.913083 54.6337 -0.963867 2.63652 40.9745 10.5183 12.3791 173.573 17.9045 91.1256 -52.2214 -12.1289 -0.38852 77.7804 -8.59201 -3.96389 60.0087 1.44595 -0.591695 1.0056 8.08231 -90.0354 10.7122 1.98625 -0.253228 -0.957277 1.97317 -0.34044 -23.5045 1.97049 0.355674 -3.49183 1.9705 0.355677 96.1794 -39.5972 -92.6746 23.382 -13.009 -10.7545 -13.4591 1.0732 -104.158 -31.2054 0.187411 -5.4675 -91.0892 -42.1916 75.1368 -44.3892 19.0141 30.5889 5.46133 2.64529 -60.8294 19.1395 0.74069 0.00384369 9.01231 -12.4959 5.48269 16.8737 -13.1503 0.412809 
